<?xml version="1.0" encoding="utf-8"?>
<!-- Svg Vector Icons : http://www.onlinewebfonts.com/icon -->
<!DOCTYPE svg PUBLIC "-//W3C//DTD SVG 1.1//EN" "http://www.w3.org/Graphics/SVG/1.1/DTD/svg11.dtd">
<svg version="1.1" xmlns="http://www.w3.org/2000/svg" xmlns:xlink="http://www.w3.org/1999/xlink" x="0px" y="0px" viewBox="0 0 256 256" enable-background="new 0 0 256 256" xml:space="preserve">
<metadata> Svg Vector Icons : http://www.onlinewebfonts.com/icon </metadata>
<g><g><g><path fill="#000000" d="M122.8,10.3c-10.5,1.7-21.1,7-28.4,14.3C84.3,34.7,79.3,48.4,79.9,64.8c0.2,5,0.1,6-0.6,7.5c-3,5.9,2,21.7,8.3,25.8c1.4,0.9,2,1.9,3.3,5c8.2,20.2,25,33.1,40.5,30.9c14.1-2,26.8-13.7,33.8-31c1.2-3,1.9-4,3.1-4.8c1.7-1,4.5-4.6,6.1-7.6c2.9-5.7,4.2-15.1,2.6-18.3c-0.6-1.2-0.7-3.4-0.8-11c-0.1-10.2-0.7-14.2-2.8-20.4c-3.4-9.9-9.5-15.9-18-17.7c-1.8-0.4-2.8-0.8-2.9-1.3c-1.5-5.2-6.2-9.1-13.3-11.1C136.1,10.1,126.4,9.7,122.8,10.3z M118,50.6c6.1,1.4,13.8,1.4,20.2,0c9.6-2.1,15.2-0.6,20.7,5.8c4.6,5.4,5.1,6.6,5.2,14c0.6,20.9-7.1,40.7-19.5,50.4c-9.6,7.5-18.1,8.6-27.7,3.6c-15.2-7.9-25-28.7-25.1-52.8c0-8.2,0.5-9.5,5.7-15.7C102.7,50.1,108.7,48.5,118,50.6z"/><path fill="#000000" d="M102.8,69.7c-2.6,0.6-3.3,1.5-2.9,3.2c0.4,1.5,1.6,1.9,3.8,1.3c1-0.3,3.8-0.5,6.2-0.5s5.2,0.2,6.2,0.5c2.1,0.6,3.4,0.2,4.1-1c0.8-1.5-0.5-2.9-3.3-3.6C114,69,105.9,69,102.8,69.7z"/><path fill="#000000" d="M138.8,69.7c-2.4,0.6-3.7,2.1-2.9,3.5c0.7,1.3,2,1.6,4.1,1c1-0.3,3.8-0.5,6.2-0.5s5.2,0.2,6.2,0.5c2.3,0.6,3.5,0.2,3.8-1.3c0.5-1.8-0.3-2.6-2.9-3.2C150.5,69.1,141.5,69.1,138.8,69.7z"/><path fill="#000000" d="M109.1,76.7c-4.5,1.6-4.5,7.3,0.1,9.1c3.6,1.3,7.7-1,7.7-4.4c0-0.9-0.2-2-0.5-2.5C115.4,76.8,111.7,75.7,109.1,76.7z"/><path fill="#000000" d="M143,76.4c-0.6,0.1-1.7,0.8-2.5,1.5c-2.6,2.5-1.5,6.7,2.1,7.9c4.5,1.5,8.8-2,7.4-6C149.3,77.3,146.1,75.8,143,76.4z"/><path fill="#000000" d="M121.8,96.4c-0.2,0.4,1.9,2.2,3.8,3.2c1.8,1,4.1,0.7,6.4-1c2.3-1.6,2.6-2.5,0.7-2.2c-1.8,0.3-7.5,0.3-9.1-0.1C122.7,96.2,121.9,96.3,121.8,96.4z"/><path fill="#000000" d="M118,109.3c-0.4,1.1,1.5,2.8,4.8,4.5c2.6,1.3,3.2,1.4,5.9,1.2c4.4-0.4,10.1-3.8,9.4-5.7C137.7,108.2,118.4,108.2,118,109.3z"/><path fill="#000000" d="M91.9,133.9c-5.1,3.5-14,8.1-24.4,12.6c-14.1,6.1-21.1,10.1-24,13.6c-6.2,7.3-9.6,25.8-10.9,58c-0.6,14-0.4,16.6,1.6,20.1c1.4,2.5,4.9,5.6,7.6,6.8l2.2,1h84.1h84.1l2.6-1.3c3.4-1.7,7-5.5,8.1-8.8c0.7-2.1,0.8-3.7,0.7-11.5c-0.4-32.8-4.5-56.6-11-64.4c-2.9-3.5-9.9-7.5-23.8-13.5c-10.6-4.6-18.7-8.8-24.2-12.5c-2.7-1.8-5.3-3.3-5.8-3.3c-1.9,0-2.8,1.4-3.8,6.3c-1.3,6.2-4.9,16.9-7.7,23.4c-2.9,6.4-8.4,16-8.9,15.5c-0.2-0.2-1-2.7-1.8-5.7l-1.4-5.3l1.3-1.6c1-1.3,1.3-2.2,1.4-5.1c0.3-4.7-0.1-6.4-2.1-8.5c-1.9-2.1-3.8-2.8-7.6-2.8c-3.6,0-5.6,0.7-7.3,2.4c-2,2-2.5,3.5-2.5,7.6c0,3.7,0.5,5.5,1.9,7c0.9,0.9,0.9,1-0.6,6.3c-0.8,3-1.6,5.6-1.8,5.7c-0.4,0.4-6.2-9.7-8.7-15.5c-3.1-7-6.2-16-7.6-22.6C99.6,129.6,98.7,129.2,91.9,133.9z M98.2,150.5c5.4,16.7,14,31.6,25.4,43.8c4.1,4.4,5,4.4,9.1,0c7.1-7.7,12.8-15.9,17.7-25.5c4.5-9,8.4-19.1,10.2-26.7l0.6-2.4l4.9,2.9c2.6,1.6,5.5,3.2,6.2,3.4l1.3,0.6v5.1c0,3.8-0.1,5.1-0.6,5.1c-0.3,0-1.7,0.5-3,1.2c-5,2.3-9.6,8.1-11.7,14.6c-1.4,4.6-7.9,35.6-7.9,38.1c0,2.8,0.6,4.5,2.5,6.4c1.4,1.5,5.5,3.8,6.8,3.8c0.3,0,1.3,0.6,2.2,1.4c2.7,2.4,6.7,1.6,8.2-1.6c0.9-2,0.9-2.7,0-4.7c-1.3-2.7-5.2-3.9-7.5-2.2c-2,1.4-5.7-0.5-5.7-3c0-3,7-34.7,8.5-38.1c1.9-4.5,5.5-8.3,8.8-9.2c6.2-1.8,12.1,3,14.9,12c0.6,1.9,2.6,10.8,4.5,19.7c2.5,11.9,3.3,16.4,3,16.9c-0.3,0.5-1.3,1.2-2.1,1.7c-1.6,0.9-1.7,0.9-3.6,0c-4-1.9-7.9,0.5-7.9,4.6c0,1.8,0.2,2.4,1.6,3.7c2.3,2.3,5.1,2.2,7.9-0.3c0.5-0.5,2-1.2,3.2-1.6c4.4-1.4,7.6-5.2,7.6-9.1c0-2.5-7.3-36.3-8.6-39.7c-2.7-7.2-7-12.1-12.5-13.9l-2.1-0.7v-3.4v-3.4l2.5,1.1c1.3,0.6,5.4,2.4,9,4c7,3.1,13.4,6.6,15.5,8.7c5.7,5.4,9.7,29.4,10.2,61.3c0.1,8.1,0.1,8.1-1.1,10.3c-1,1.6-1.9,2.5-3.7,3.3l-2.4,1.2h-81.9H46.2l-2.4-1.2c-1.8-0.9-2.7-1.8-3.7-3.3l-1.3-2.2l0.1-8.3c0.3-25.2,3.2-47.7,7.3-56.7c1.5-3.4,3.1-4.9,8-7.8c3.2-1.9,20.3-9.8,21.2-9.8c0.1,0,0.3,10.6,0.3,23.5v23.5l-2.1,0.9c-1.2,0.5-2.9,1.7-3.9,2.9c-5.6,6.3-3.7,15.7,3.8,19.7c2.7,1.4,8.5,1.4,11.2,0c9.5-5,9.2-18.3-0.4-22.8l-2.1-1v-25v-25l4.3-2.3c2.3-1.3,5.2-3,6.4-3.7l2.1-1.3l0.6,2.1C95.8,143,97,146.9,98.2,150.5z"/></g></g></g>
</svg>