<?xml version="1.0" encoding="utf-8"?>
<!-- Svg Vector Icons : http://www.onlinewebfonts.com/icon -->
<!DOCTYPE svg PUBLIC "-//W3C//DTD SVG 1.1//EN" "http://www.w3.org/Graphics/SVG/1.1/DTD/svg11.dtd">
<svg version="1.1" xmlns="http://www.w3.org/2000/svg" xmlns:xlink="http://www.w3.org/1999/xlink" x="0px" y="0px" viewBox="0 0 256 256" enable-background="new 0 0 256 256" xml:space="preserve">
<metadata> Svg Vector Icons : http://www.onlinewebfonts.com/icon </metadata>
<g><g><g><path fill="#000000" d="M100.4,10.7c-6.5,1.8-11.4,5.9-14.4,12.4c-2.7,5.8-3.3,6.5-7.7,9.4c-4.5,2.9-7,5.6-8.9,9.5c-2.2,4.8-2.4,6.4-2.2,25.8c0.2,17.9,0.2,18,1.4,21.7c0.7,2,2.1,5.2,3.2,6.9c2,3.4,6.7,8.4,9,9.9c1.3,0.8,1.4,1,1.7,5.1c0.9,11.8,5,20.7,13.8,29.5l5.1,5.1v4.7v4.6l-16.5,3.7c-9.1,2-18.2,4.3-20.1,5.1c-13.5,5.2-24.5,16.8-29.4,31.1c-2.2,6.5-2.5,10.4-2.5,31.3V246H128h95.2v-19.2c0-14.3-0.2-20.3-0.7-23.7c-2.6-17.3-14.9-32.7-31.2-39c-2-0.8-11-3-20.1-5.1l-16.5-3.7v-4.6v-4.7l5.1-5.1c8.7-8.8,12.8-17.7,13.7-29.5c0.3-4.1,0.4-4.4,1.6-5.1c3.8-2.3,9.2-9.1,11.3-14.3c2.4-5.9,2.5-7.9,2.3-31c-0.2-23.7-0.2-23.7-3.4-30.5c-5.2-10.8-15.3-18.3-26.9-20.2c-1.9-0.3-13.1-0.5-29.3-0.5C107.9,10,102.5,10.1,100.4,10.7z M162.8,19c4.7,1.8,7.5,3.6,10.7,6.8c3.4,3.5,5.6,7.5,6.9,12.5c0.9,3.4,1,5.3,1,24.3c0,13.5-0.2,21.5-0.5,23.1c-0.8,3.6-2.4,6.9-4.8,9.9l-2.1,2.6l-0.2-15.9c-0.3-18.2-0.4-18.8-4.5-24.5c-8.2-11.5-23.9-12.8-33.8-2.9c-3,3-5.6,7.3-6.1,10.4c-0.4,2.3-1.9,2.5-2.3,0.2c-0.6-3.3-3.1-7.6-6.2-10.6c-5.4-5.2-12.5-7.7-19.2-6.4c-9.1,1.7-16.8,9.1-18.7,18c-0.3,1.5-0.5,8.4-0.5,17.1l0,14.6l-1.9-2.1c-2.4-2.7-4.5-7-5.2-10.7c-0.4-2-0.5-8.7-0.4-20.7C74.9,47.5,75,46.8,76,44.9c1.3-2.4,3.4-4.4,7-6.5c3.9-2.3,6.8-5.6,9.2-10.9c2.8-5.9,5-8.2,9.2-9.6c0.7-0.2,14-0.3,29.7-0.3l28.6,0.1L162.8,19z M112,57.3c4.8,2.3,6.9,6,8.4,13.9l0.6,3.5h6.9h6.9l1-5c0.7-3.4,1.5-5.8,2.4-7.3c2.8-4.5,8-7,13.9-6.6c5.7,0.4,9.9,3.1,12.3,7.9l1.3,2.7v24.7c0,27.8,0,27.2-3.6,34.8c-4.6,9.6-13.7,17.1-24.2,19.9c-4.3,1.2-15.7,1.2-20,0c-10.6-2.9-19.6-10.3-24.2-19.9c-3.6-7.5-3.5-6.9-3.8-33.2c-0.1-16.4,0-24.3,0.4-26c1-4.8,4.4-8.6,9.2-10.3C103.2,55.2,108.5,55.6,112,57.3z M114.5,152.3c5.6,1.9,12.3,2.6,18.3,1.9c4-0.5,9.9-2,13.4-3.6c0.7-0.3,0.8,0,0.8,3.2v3.6l-9.4,15.8c-5.2,8.7-9.5,15.7-9.7,15.7s-4.5-7-9.6-15.7l-9.4-15.8v-3.6c0-3.2,0.1-3.5,0.9-3.2C110.2,150.8,112.4,151.6,114.5,152.3z M96.6,164.5c0,0.2-0.7,5.3-1.5,11.4c-0.9,6.1-1.4,11.1-1.3,11.2c1.2,1.1,33.7,21,34.3,21c0.5,0,32.9-19.8,34.3-21c0.1-0.1-0.5-5.2-1.4-11.4c-0.9-6.1-1.5-11.3-1.4-11.4c0.1-0.1,1.6,0.2,3.4,0.6l3.2,0.7v15.7V197l-2.4,1.2c-3.4,1.7-5.3,3.6-7.2,7c-1.4,2.7-1.6,3.4-1.6,6.6c0,3.1,0.2,3.9,1.6,6.6c1.9,3.4,3.8,5.2,7.3,7.1c3.3,1.7,8.6,1.8,11.7,0.2l2-1v6.9v6.9H128H78.5v-7.6v-7.6h-3.8h-3.8v7.6v7.6H55.7H40.4v-16.1c0-12.7,0.1-17,0.8-20c2.5-13,10.6-23.7,22.3-29.4c3.8-1.8,10.9-4,17-5.1l1.8-0.3v14.5v14.5l-7.5,0.2c-7.1,0.1-7.7,0.2-10,1.5c-3.6,1.9-5.5,3.7-7.3,7.1l-1.6,3l-0.1,11.3l-0.1,11.3h5.7h5.8V227v-3.8h-2h-1.9l0.1-7.3c0.1-6.6,0.2-7.5,1.1-8.7c2.1-3,2.5-3,21.6-3s19.5,0,21.6,3c0.9,1.2,1,2.1,1.1,8.7l0.1,7.3h-1.9h-2v3.8v3.8h5.8h5.7l-0.1-11.3l-0.1-11.3l-1.6-3c-1.9-3.4-3.8-5.2-7.3-7.1c-2.3-1.2-2.9-1.3-9.9-1.5l-7.5-0.2V181v-15.4l3-0.7C96.7,164.1,96.6,164.1,96.6,164.5z M113.7,180c5,8.4,9.3,15.6,9.6,16.1c0.3,0.7-0.7,0.2-3.2-1.4c-2-1.3-6.9-4.3-10.9-6.8c-3.9-2.4-7.2-4.5-7.4-4.6c-0.1-0.1,0.3-3.8,0.9-8.1c1.2-8.5,1.5-10.7,1.7-10.5C104.5,164.8,108.7,171.7,113.7,180z M153.2,174.9c0.6,4.5,1,8.3,0.9,8.4c-0.1,0.1-3.4,2.2-7.3,4.6c-3.9,2.4-8.8,5.5-10.9,6.8c-3.2,2-3.6,2.1-3.1,1.2c0.3-0.7,4.7-7.9,9.7-16.2c7.2-12.1,9.1-14.8,9.3-14C152,166.3,152.6,170.5,153.2,174.9z M182.7,169.4c15.9,3.9,27.3,14.7,31.5,29.7c1,3.5,1,5.1,1.2,21.5l0.2,17.8h-15.3h-15.3v-7.6v-7.6h-2.7h-2.7l1.3-1.5c2.6-3.2,3.8-6.1,3.8-9.9c0-3.1-0.2-3.9-1.6-6.6c-1.9-3.4-3.8-5.3-7.2-7l-2.4-1.2v-14.8v-14.8l1.8,0.3C176.4,168,179.7,168.7,182.7,169.4z M174.5,205.4c2.1,1.6,3,3.9,2.8,7c-0.3,4.8-3.1,7.2-8.1,6.9c-4.8-0.3-7.2-3.1-6.9-8.1c0.2-3.1,1.2-4.9,3.7-6.2C168.3,203.8,172.7,204,174.5,205.4z"/></g></g></g>
</svg>