<?xml version="1.0" encoding="utf-8"?>
<!-- Svg Vector Icons : http://www.onlinewebfonts.com/icon -->
<!DOCTYPE svg PUBLIC "-//W3C//DTD SVG 1.1//EN" "http://www.w3.org/Graphics/SVG/1.1/DTD/svg11.dtd">
<svg version="1.1" xmlns="http://www.w3.org/2000/svg" xmlns:xlink="http://www.w3.org/1999/xlink" x="0px" y="0px" viewBox="0 0 256 256" enable-background="new 0 0 256 256" xml:space="preserve">
<metadata> Svg Vector Icons : http://www.onlinewebfonts.com/icon </metadata>
<g><g><g><path fill="#000000" d="M69,73c-32.5,32.2-59,59-59,59.4c0,0.8,5.1,5.9,5.8,5.9c0.3,0,25.7-25.2,56.4-55.9l55.9-55.9l55.7,56.1l55.7,56l3.2-3.2l3.2-3.2l-58.9-58.9l-58.9-58.9L69,73z"/><path fill="#000000" d="M83.2,90.4l-44.3,44.3v53.5v53.5H70h31.1v-35.6v-35.6h26.7h26.7v35.6v35.6h31.1h31.1v-53.5v-53.5l-44.4-44.4C148.1,66,128,46,127.9,46S107.6,66,83.2,90.4z M168,98.6l39.9,39.9v47.1v47.1h-22.2h-22.2v-35.6v-35.6h-35.6H92.3v35.6v35.6H70H47.8v-47.1v-47.1l39.9-39.9c22-22,40-39.9,40.2-39.9C128,58.8,146.1,76.7,168,98.6z"/></g></g></g>
</svg>