<?xml version="1.0" encoding="utf-8"?>
<!-- Uploaded to: SVG Repo, www.svgrepo.com, Generator: SVG Repo Mixer Tools -->
<svg width="800px" height="800px" viewBox="0 -13.82 353.268 353.268" xmlns="http://www.w3.org/2000/svg"><defs><style>.a{fill:#ffffff;}.b{fill:#211715;}.c{fill:#d3d1d0;}.d{fill:#87cce3;}</style></defs><path class="a" d="M174.291,319.7a22.429,22.429,0,0,1-5.434-2.108c-4.959-2.975-9.909-5.9-9.909-14.156,0-26.645.347-49.779.347-77.178a28.045,28.045,0,0,1,1.8-11.009c2.043-4.8,7.809-7.867,10.987-12s3.224-6.37,3.224-11.718l-.031-1.707c10.613,3.086,19.287,3.683,29.966,3.683a164.5,164.5,0,0,0,18.355-.659c4.482-.541,9.821-1.087,14.362-2.825,0,.442.009.722.009.722,0,5.347.046,8.369,3.224,12.5s8.944,7.2,10.987,12a28.045,28.045,0,0,1,1.8,11.009c0,27.4.347,50.533.347,77.178,0,8.258-4.95,11.181-9.909,14.156-6.77,4.062-26.491,5.534-37.278,5.654C198.423,323.148,183.383,322.181,174.291,319.7Z"/><path class="b" d="M295.073,155.732a5.936,5.936,0,0,1,1.288,4.112,4.358,4.358,0,0,1-1.1,2.815c-1.134.954-2.666.738-4.011.469-1.877-.375-3.852-.87-5.757-.374-4.106,1.068-4.9,5.227-4.347,8.874.249,1.653.3,3.041-.827,4.425-1.084,1.327-2.488,1.276-4.049,1.048a7.384,7.384,0,0,0-6.388,1.585,5.175,5.175,0,0,0-1.181,6.192,2.423,2.423,0,0,0,3.283.861,2.447,2.447,0,0,0,.861-3.283c.074.15.434-.414.554-.489a2.78,2.78,0,0,1,1.7-.22c2.1.2,3.9.512,5.918-.353a8.515,8.515,0,0,0,4.2-4.18,9.872,9.872,0,0,0,.667-6.2c-.152-.9-.463-2.506.2-3.269.8-.911,2.717-.226,3.695-.028,3.818.772,7.951.42,10.142-3.272a10.6,10.6,0,0,0-.709-11.138,2.461,2.461,0,0,0-3.283-.861,2.422,2.422,0,0,0-.861,3.284Z"/><path class="b" d="M350.36,108.964c-.768-.858-2.944-2.216-2.966-3.52a6.422,6.422,0,0,1,.7-1.833,12.559,12.559,0,0,0,.609-3.128c.4-3.7-1.3-7.727-4.89-9.179-1.636-.661-3.813-.349-5.289-1.3a8.094,8.094,0,0,1-2.04-2.794c-1.738-3.061-3.981-5.978-7.891-5.842a11.826,11.826,0,0,0-5.739,1.938c-.775.485-1.5,1.051-2.272,1.536a2.941,2.941,0,0,1-1.6.673c-.74-.079-1.508-.921-2.167-1.266a9.013,9.013,0,0,0-2.761-.906,11.538,11.538,0,0,0-5.355.214,8.506,8.506,0,0,0-4.231,3.246,9.794,9.794,0,0,0-1.182,2.35c-.305.841-.318,1.776-.638,2.6-.452,1.164-2.254,1.193-3.34,1.4a13.645,13.645,0,0,0-4.45,1.437c-3.369,1.976-4.432,5.707-3.78,9.358a34.764,34.764,0,0,1,.9,4.485c.07,1.546-1.1,2.63-1.941,3.843-2.382,3.453-1.574,7.819,1.281,10.739a15.118,15.118,0,0,0,4.849,3.122c1.237.651.947,2.2.933,3.437a13.4,13.4,0,0,0,.9,5.388c1.577,3.773,4.986,5.261,8.919,5.077,1.466-.068,3.4-.506,4.751.238,1.394.767,2.277,2.42,3.563,3.374,3.26,2.417,7.972,1.526,10.805-1.149a21.655,21.655,0,0,0,2.888-3.984,5.608,5.608,0,0,1,1.1-1.313,2.27,2.27,0,0,1,1.746-.33c1.868.106,3.678.705,5.556.783a9.83,9.83,0,0,0,5.63-1.47A8.163,8.163,0,0,0,346.4,131.9a8.887,8.887,0,0,0,.352-2.9,11.557,11.557,0,0,1-.018-3.1c.3-1.14,1.417-2.009,2.283-2.786a15.438,15.438,0,0,0,3.244-3.576C354.341,115.959,352.943,111.852,350.36,108.964Z"/><path class="c" d="M335.256,111.573l2.834-2.723a2.548,2.548,0,0,0-3.6-3.6l-2.53,2.431q-1.135-1.331-2.264-2.667a2.559,2.559,0,0,0-3.6,0,2.616,2.616,0,0,0,0,3.6q1.094,1.3,2.2,2.588l-2.988,2.871a2.548,2.548,0,1,0,3.6,3.6l2.684-2.578c.858,1.027,1.709,2.059,2.54,3.109a2.545,2.545,0,0,0,1.8.747,2.594,2.594,0,0,0,1.8-.747,2.567,2.567,0,0,0,.746-1.8,2.966,2.966,0,0,0-.746-1.8C336.921,113.581,336.092,112.574,335.256,111.573Z"/><path class="c" d="M313.4,111.573l2.834-2.723a2.548,2.548,0,0,0-3.6-3.6l-2.53,2.431q-1.135-1.331-2.264-2.667a2.559,2.559,0,0,0-3.6,0,2.616,2.616,0,0,0,0,3.6q1.094,1.3,2.2,2.588l-2.988,2.871a2.548,2.548,0,1,0,3.6,3.6l2.684-2.578c.858,1.027,1.71,2.059,2.54,3.109a2.545,2.545,0,0,0,1.8.747,2.592,2.592,0,0,0,1.8-.747,2.558,2.558,0,0,0,.746-1.8,2.96,2.96,0,0,0-.746-1.8C315.07,113.581,314.241,112.574,313.4,111.573Z"/><path class="d" d="M168.936,298.059a34.894,34.894,0,0,1-1.747-7.921,49.924,49.924,0,0,0,5.914,1.972c7.3,1.966,22.676,3.485,33.543,3.517,10.853-.032,26.129-1.394,33.522-3.517A59.3,59.3,0,0,0,246,290.139c-.277,7.238-3.23,14.357-7.817,16.949-5.683,3.211-20.933,4.674-30.818,4.674s-26.108-1.213-31.645-4.674C171.813,304.647,170.3,301.921,168.936,298.059Z"/><path class="d" d="M172.567,221.391a13.409,13.409,0,0,1,3-5.665,11.369,11.369,0,0,1,8.576-3.465l46.515-.3c3.634,0,5.405,1.306,7.951,4.468,2.347,2.915,3.294,10.942,5.126,13.59l.1.361c-.558.133-1.118.249-1.68.352-4.195.77-19.558,1.81-34.3,1.81-15.217,0-31.466-1.261-33.486-1.47-1.552-.161-3.168-.355-4.772-.655l.1-.4A81.756,81.756,0,0,0,172.567,221.391Z"/><path class="c" d="M206.526,159.94c-6.221,0-13.248-.286-19.453.22-5.2.425-14.373.97-17.749,5.745-1.095,1.548-1.1,3.573-1.1,5.47,0,3.884-.75,12.575.916,14.5a16.433,16.433,0,0,0,5.269,3.7c11.01,3.3,19.862,3.932,30.828,3.932a164.5,164.5,0,0,0,18.355-.659c6.123-.739,13.846-1.487,18.947-5.273a5.7,5.7,0,0,0,1.836-2.042c1.166-2.444,1.127-16.032-.223-18.89-2.5-5.29-12.724-5.645-17.658-6.088C219.858,159.956,213.186,159.94,206.526,159.94Z"/><path class="a" d="M164.094,288.705a25.371,25.371,0,0,1-4.2-2.729l-.9-.727c.095-19.494.3-37.991.3-58.993,0-.3,0-.6.005-.9,3.726,4.23,9.766,5.166,15.06,5.714,2.02.209,18.269,1.47,33.486,1.47,14.745,0,30.108-1.04,34.3-1.81a26.545,26.545,0,0,0,11.825-4.986c0,.171,0,.342,0,.513,0,21,.2,39.5.3,58.993l-.9.727c-3.774,3.067-8.861,4.885-13.211,6.134-7.393,2.123-22.669,3.485-33.522,3.517-10.867-.032-26.246-1.551-33.543-3.517A44.524,44.524,0,0,1,164.094,288.705Z"/><path class="b" d="M177.181,175.588c3.31,1.439,7.017,1.841,10.569,2.276,4.272.524,8.572.844,12.87,1.043a148.941,148.941,0,0,0,21.332-.539c4.784-.469,9.7-1.084,14.138-3.036a2.416,2.416,0,0,0,.861-3.284,2.46,2.46,0,0,0-3.283-.861c.366-.161-.114.048-.2.081-.2.075-.393.149-.592.219-.376.132-.756.252-1.139.366-.977.289-1.97.524-2.969.729-1.918.394-3.857.672-5.8.882-4.1.443-8.232.648-12.358.738a163.471,163.471,0,0,1-20.457-.868c-2.176-.225-4.156-.468-6.3-.855-.894-.161-1.786-.341-2.666-.568-.337-.087-.673-.18-1-.285-.172-.054-1.247-.475-.576-.183a2.479,2.479,0,0,0-3.283.861,2.418,2.418,0,0,0,.861,3.284Z"/><path class="b" d="M206.526,157.54c-7.819-.008-15.608-.254-23.4.566-5.848.615-14.3,1.852-16.68,8.216a16.094,16.094,0,0,0-.622,5.5c-.016,1.376-.078,2.752-.117,4.127a36.27,36.27,0,0,0,.425,8.87c.632,2.826,3.134,4.646,5.5,6.064a20.4,20.4,0,0,0,5.429,1.925q3.115.816,6.284,1.406c8.328,1.537,16.747,1.708,25.191,1.685a131.576,131.576,0,0,0,23.618-1.842,30.152,30.152,0,0,0,10.533-3.693,9.392,9.392,0,0,0,3.925-4.006,10.871,10.871,0,0,0,.656-2.948,52.913,52.913,0,0,0-.292-15.536c-1.008-5.706-6.821-7.89-11.912-8.777a136.379,136.379,0,0,0-21.715-1.532c-2.275-.027-4.55-.028-6.825-.028-3.088,0-3.094,4.8,0,4.8,7.616,0,15.185.183,22.774.846a39.992,39.992,0,0,1,7.336,1.168,13.032,13.032,0,0,1,3.187,1.238,7.5,7.5,0,0,1,1.129.765,3.726,3.726,0,0,1,.832.947c.126.212.4.962.153.2.044.136.1.27.136.409.095.379.188.755.258,1.139.045.244.084.49.119.736-.059-.411.019.163.033.293q.1.906.164,1.815a71.412,71.412,0,0,1,.122,7.546c-.039,1.11-.109,2.219-.222,3.324-.018.18-.085.654-.02.209-.027.188-.056.376-.09.563a9.63,9.63,0,0,0-.25,1.04c0,.065-.142.355.04-.074.208-.491-.062.1-.109.16a5.252,5.252,0,0,1-.72.771,12.062,12.062,0,0,1-1.931,1.256,21.3,21.3,0,0,1-4.372,1.757c-6.6,1.935-13.819,2.409-20.662,2.581a188.1,188.1,0,0,1-23.081-.493,82.83,82.83,0,0,1-11.183-1.9,43.572,43.572,0,0,1-5.21-1.408,12.682,12.682,0,0,1-3.195-2.153c-.209-.183-.41-.373-.609-.566a3.832,3.832,0,0,1-.315-.336c.024.029.233.4.16.174-.148-.449.008.1-.044-.086-.069-.24-.141-.477-.2-.721a18.206,18.206,0,0,1-.285-3.231c-.07-2.71.094-5.417.143-8.127a12.515,12.515,0,0,1,.349-4.3,5.1,5.1,0,0,1,2.187-2.287,20.528,20.528,0,0,1,7.587-2.39c6.576-1.053,13.33-1,19.967-.922,1.939.022,3.879.047,5.818.049C209.615,162.343,209.62,157.543,206.526,157.54Z"/><path class="b" d="M172.905,191.528c0,2.458.136,4.8-.747,7.032a17.236,17.236,0,0,1-4.28,5.686c-1.988,1.873-4.169,3.552-6,5.587a17.747,17.747,0,0,0-4.133,7.965,45.15,45.15,0,0,0-.852,10.443q0,5.578-.024,11.157-.038,10.467-.116,20.935c-.094,13.884-.2,27.767-.206,41.651a20.4,20.4,0,0,0,1.479,8.683,15.3,15.3,0,0,0,4.436,5.523,30.629,30.629,0,0,0,10.923,5.749,91.776,91.776,0,0,0,14.655,2.539c5.042.558,10.111.9,15.182,1.076a149.344,149.344,0,0,0,29.695-2.072c4.172-.7,8.616-1.554,12.361-3.621,3.944-2.176,8.046-4.964,9.965-9.194,1.333-2.939,1.48-5.984,1.478-9.164q0-5.334-.023-10.667-.038-10.463-.116-20.923c-.1-14.056-.2-28.111-.206-42.167,0-6.565-.559-13.15-5.225-18.175-3.419-3.682-8.554-6.5-10.137-11.551a24.226,24.226,0,0,1-.649-7.278c0-3.089-4.8-3.094-4.8,0a31.613,31.613,0,0,0,.649,7.953,17.724,17.724,0,0,0,3.931,7.044c3.293,3.8,8.494,6.428,10.2,11.4a29.4,29.4,0,0,1,1.234,9.614q.006,5.365.019,10.732.032,10.28.106,20.558c.09,13.527.2,27.055.218,40.583,0,2.971.323,6.107-.6,8.978a10.516,10.516,0,0,1-3.453,4.821,31.551,31.551,0,0,1-5.008,3.291,20.3,20.3,0,0,1-4.743,1.755c-9.253,2.521-19.18,3.085-28.727,3.33-4.434.113-8.879-.114-13.3-.414a147.359,147.359,0,0,1-14.892-1.658,64.706,64.706,0,0,1-6.531-1.42,17.976,17.976,0,0,1-4.431-1.7c-3.506-1.984-7.188-4.27-8.377-8.329-.855-2.919-.506-6.13-.5-9.134q.009-5.172.032-10.344.044-10.086.12-20.172c.095-13.792.135-27.585.191-41.378a27.24,27.24,0,0,1,1.383-9.538,15.257,15.257,0,0,1,4.374-5.653c3.8-3.484,8.1-6.856,9.6-12.039a27.035,27.035,0,0,0,.649-7.5c0-3.089-4.8-3.094-4.8,0Z"/><path class="b" d="M158.2,287.673c5.126,4.083,11.5,6.329,17.878,7.568a159.973,159.973,0,0,0,19.4,2.349,166.281,166.281,0,0,0,39.428-1.879c7.125-1.221,14.456-3.485,20.177-8.038a2.414,2.414,0,0,0,0-3.394,2.458,2.458,0,0,0-3.394,0c-4.623,3.679-10.884,5.458-16.6,6.542a145.1,145.1,0,0,1-18.161,2.056,166.228,166.228,0,0,1-36.885-1.788c-6.383-1.044-13.282-2.7-18.442-6.81a2.475,2.475,0,0,0-3.394,0,2.416,2.416,0,0,0,0,3.394Z"/><path class="b" d="M157.88,227.355c4.443,4.57,10.994,5.628,17.066,6.169,5.057.451,10.134.725,15.2.962a350.515,350.515,0,0,0,45.81-.65c6.754-.57,13.549-1.679,19.092-5.915a2.48,2.48,0,0,0,.861-3.284,2.415,2.415,0,0,0-3.283-.861,24.405,24.405,0,0,1-9.446,4.292c-.674.157-1.353.3-2.036.41-.166.027-.332.05-.5.076-.555.087.223-.023-.228.031q-1.554.188-3.114.332c-6.64.614-13.316.913-19.981,1.091a391.162,391.162,0,0,1-40.712-1.147c-5.294-.412-11.437-.883-15.342-4.9-2.157-2.219-5.549,1.177-3.394,3.394Z"/><path class="a" d="M75.331,144.03c5.977-10.11,11.42-19.32,15.494-26.224.267-.451.608-.995,1.13-1.036,2.925-.231,9.514,1.577,15.091,3.085,3.908,4.461,7.524,8.157,9.6,11.514.269.436-.1,1.014-.362,1.456-14.519,24.6-46.3,78.6-57.78,98.05,3.78,2.228,7.393,4.36,9.773,5.765,2.444,1.442,3.159,2.877,2.334,4.273L67.7,245.838c-.781,1.323-2.852,2.479-5.718.788l-12.178-7.187-.4.585c-1.864,2.707-12.778,18.446-14.055,20.3l-.607.882,7.592,4.481c2.17,1.28,2.8,2.554,2.072,3.794l-2.58,4.372c-.693,1.175-2.532,2.2-5.076.7l-15.87-9.366-.2-.116L4.618,255.591c-2.545-1.5-2.535-3.608-1.842-4.783l2.581-4.372c.732-1.24,2.153-1.3,4.323-.02l8.288,4.892.468-.936c1.007-2.015,9.479-19.4,10.948-22.342,0,0,.09-.181.249-.5l-12.78-7.542C13.987,218.3,14,215.927,14.779,214.6l2.907-4.924c.824-1.4,2.425-1.465,4.869-.023l10.416,6.148.5-.97c7.5-12.711,22.614-38.258,36.349-61.487C71.692,150.186,73.536,147.068,75.331,144.03Z"/><path class="d" d="M107.151,119.975l-.1-.12c-5.577-1.508-12.166-3.316-15.091-3.085-.522.041-.863.585-1.13,1.036-7.083,12-18.3,30.979-29.272,49.528,8.751,5.177,17.012,10.075,25.493,15.1,10.945-18.582,22.147-37.6,29.235-49.608.261-.442.631-1.02.362-1.456C114.589,128.042,111.019,124.383,107.151,119.975Z"/><path class="b" d="M120.335,100.958c6.789-11.5,13.694-22.929,20.519-34.406q3.507-5.9,7-11.8c1.574-2.666-2.574-5.084-4.145-2.423-7.822,13.252-15.736,26.45-23.622,39.664q-1.952,3.27-3.894,6.546c-1.574,2.666,2.574,5.084,4.145,2.423Z"/><path class="b" d="M35.546,216.046q11.679-19.788,23.383-39.561,13.754-23.258,27.5-46.519,3-5.073,5.992-10.147c.08-.134.159-.269.238-.4.249-.418.783-.768-.04-.467-1,.367.448.212.838.243a27.471,27.471,0,0,1,3.432.569c3.2.676,6.359,1.554,9.516,2.408l-1.059-.617c2,2.276,4.062,4.5,6.028,6.8.7.821,1.4,1.648,2.034,2.519.218.3.647,1.254.983,1.428-.782-.4.428-1.465-.244-.586a6.117,6.117,0,0,0-.355.6l-5.241,8.885q-6.37,10.807-12.737,21.616-13.692,23.239-27.38,46.48-5.724,9.715-11.453,19.427c-1.573,2.666,2.574,5.084,4.145,2.423q12.036-20.394,24.045-40.8,13.831-23.484,27.67-46.965,2.7-4.572,5.392-9.142c.768-1.305,1.23-2.642.479-4.078a21.389,21.389,0,0,0-2.2-3.073c-1.835-2.348-3.864-4.538-5.849-6.757-1.1-1.23-1.942-2.5-3.6-2.953-1.473-.4-2.946-.8-4.424-1.176A68.12,68.12,0,0,0,95,114.574a14.07,14.07,0,0,0-3.045-.2c-1.691.14-2.623,1.254-3.437,2.623-.841,1.414-1.673,2.834-2.509,4.25q-13.491,22.845-27,45.678-12.748,21.56-25.492,43.121-1.056,1.791-2.114,3.581c-1.573,2.667,2.574,5.084,4.145,2.423Z"/><path class="d" d="M191.922,5.63a10.639,10.639,0,0,0-5.763-2.979A15.417,15.417,0,0,0,175.046,4.82a20.2,20.2,0,0,0-7.833,8.837c-2.344,4.975-2.964,9.011-3.283,15.059a.426.426,0,0,0,.685.359A25.081,25.081,0,0,1,170.5,26a22.915,22.915,0,0,1,8-1.485,25.116,25.116,0,0,0,10.482-1.779c3.612-1.6,5.806-5.651,6.031-9.6A10.271,10.271,0,0,0,191.922,5.63Z"/><path class="d" d="M207.179,42.778c0-.328,0-.663-.021-1.006a7.581,7.581,0,0,0-4.36-6.095,15.129,15.129,0,0,0-11.858.11c-3.716,1.528-5.736,3.063-9.009,6.05a.213.213,0,0,0,.145.369c4.773.024,7.376,2.78,11.359,5.453,1.3.873,3.632,2.4,5.172,2.676,2.012.366,4.9-.9,6.362-2.324A6.711,6.711,0,0,0,207.179,42.778Z"/><path class="b" d="M193.619,3.933C188.269-1.4,179.472-.9,173.455,2.988c-5.72,3.694-9.214,9.706-10.756,16.246a42.169,42.169,0,0,0-.8,4.778c-.1.822-.171,1.646-.233,2.471a8.673,8.673,0,0,0,0,3.111,2.792,2.792,0,0,0,2.071,1.882,3.4,3.4,0,0,0,2.812-.842,23.428,23.428,0,0,1,4.96-2.462c6.526-2.381,14.237-.032,20.218-4.249a13.714,13.714,0,0,0,5.481-9.067,12.817,12.817,0,0,0-3.6-10.923c-2.108-2.267-5.5,1.133-3.394,3.394a8.019,8.019,0,0,1,1.74,8.721c-1.125,2.976-3.4,4.554-6.392,5.339-3.661.961-7.434.5-11.143,1.091a24.028,24.028,0,0,0-5.388,1.539c-1.011.415-2.019.847-2.99,1.35-.394.2-.784.42-1.166.648-.309.184-.883.736-1.142.833h1.276l-.226-.049,1.059.617-.168-.157.617,1.059a11.647,11.647,0,0,1,.237-2.681c.063-.72.133-1.44.231-2.155a31.127,31.127,0,0,1,1.042-4.775,22.386,22.386,0,0,1,4.342-8.342c4.216-4.782,12.788-8.308,18.071-3.038C192.415,9.511,195.81,6.118,193.619,3.933Z"/><path class="b" d="M209.579,42.778a10.17,10.17,0,0,0-2.553-6.905A11.6,11.6,0,0,0,200.05,32.4c-5.447-.926-10.992.91-15.419,4.092-.967.7-1.9,1.446-2.8,2.224-1.176,1.015-2.745,2.123-2.283,3.912.438,1.692,1.876,1.882,3.349,2.009a8.517,8.517,0,0,1,3.009.863,51.458,51.458,0,0,1,5.971,4c1.822,1.247,3.889,2.717,6.093,3.153A10.117,10.117,0,0,0,205.7,50.5a9.617,9.617,0,0,0,3.879-7.726c.076-3.09-4.724-3.089-4.8,0a5.12,5.12,0,0,1-3.315,4.7,4.5,4.5,0,0,1-2.5.482,9.927,9.927,0,0,1-3.1-1.577c-2.1-1.327-4.03-2.919-6.14-4.235a14.87,14.87,0,0,0-7.647-2.341l1.211.328-.156-.067,1.1,1.434-.058-.148-.242,1.849a7.342,7.342,0,0,1,1.138-.958c.436-.379.876-.756,1.329-1.114a20.921,20.921,0,0,1,2.39-1.628,17.89,17.89,0,0,1,6.685-2.5c4.111-.513,9.295.888,9.3,5.772C204.784,45.866,209.584,45.872,209.579,42.778Z"/><path class="a" d="M110.81,99.618a3.822,3.822,0,0,0-.823.98c-1.931,3.271-6.873,11.694-8.8,14.967-.256.436-.573,1.03-.832,1.469-.34.576-.17.99.459,1.361.984.581,3.329,2.007,4.215,2.53l1.294.764c.886.523,3.268,1.886,4.253,2.467.626.37,1.07.32,1.409-.252,2.891-4.9,6.559-11.053,9.711-16.394a3.447,3.447,0,0,0,.354-2.49c-.141-.8-.579-3.407-1.892-4.181l-3.807-2.247c-1.091-.644-3.532.08-4.314.338A3.675,3.675,0,0,0,110.81,99.618Z"/><path class="b" d="M20.508,251.584c3.073-6.16,6.05-12.368,9.08-18.549.621-1.266,1.239-2.532,1.868-3.793a2.46,2.46,0,0,0-.861-3.284,2.423,2.423,0,0,0-3.283.861c-3.154,6.319-6.215,12.686-9.321,19.029-.541,1.1-1.078,2.212-1.628,3.313a2.461,2.461,0,0,0,.861,3.284,2.425,2.425,0,0,0,3.284-.861Z"/><path class="b" d="M37.42,261.537q5.82-8.449,11.683-16.87,1.186-1.715,2.372-3.431a2.423,2.423,0,0,0-.861-3.284,2.448,2.448,0,0,0-3.283.861q-5.972,8.67-11.987,17.31-1.035,1.5-2.069,2.991a2.424,2.424,0,0,0,.861,3.284,2.449,2.449,0,0,0,3.284-.861Z"/><path class="b" d="M40.85,231.366l-20.506-12.1c-1.156-.683-3.026-1.387-3.587-2.679.13.3-.142-.506-.015-.049a1.611,1.611,0,0,1,0-.481c-.086.5.064-.192.092-.245-.262.5.128-.18.145-.207.729-1.182,1.413-2.393,2.118-3.589a8.229,8.229,0,0,0,.663-1.123c-.04.106.223-.008.007.009-.55.042.174.173.309.215a15.789,15.789,0,0,1,3.043,1.661l6.126,3.616L53.822,230.9l12.635,7.457a13.368,13.368,0,0,1,1.357.838c.222.17.409.434.638.583-.289-.188.41.43.094.131-.051-.049.022-.31.031-.333-.243.642.344-.416-.26.5-.473.717-.88,1.492-1.317,2.232a13.98,13.98,0,0,1-1.615,2.589c.122-.089-.3.153-.375.166a2.883,2.883,0,0,1-1.872-.54c-7.484-4.285-14.86-8.77-22.288-13.154-2.666-1.573-5.084,2.574-2.422,4.145,7.369,4.349,14.7,8.765,22.109,13.049,2.726,1.576,6.32,1.973,8.589-.636a23.369,23.369,0,0,0,2.231-3.557c.806-1.364,1.889-2.748,1.971-4.39.159-3.18-2.976-4.9-5.328-6.286l-6.82-4.025L33.831,213.525l-7.3-4.305c-2.347-1.386-5.039-3.489-7.923-2.913a4.828,4.828,0,0,0-3.218,2.532c-.821,1.359-1.614,2.735-2.421,4.1a6.141,6.141,0,0,0,.7,7.565c1.485,1.611,3.8,2.639,5.674,3.744l6.767,3.994,12.314,7.267C41.094,237.084,43.512,232.937,40.85,231.366Z"/><path class="b" d="M22.09,263.115,7.546,254.532a8.428,8.428,0,0,1-2.668-1.86c-.148-.216-.08-.06-.1-.354,0-.028-.039-.4,0-.155.043.273.142-.306.011-.045-.088.172.289-.489.336-.569l.74-1.255a10.153,10.153,0,0,0,1.45-2.457c.128-.65.125.048-.013-.074a1.56,1.56,0,0,1-.192.1c-.011.02-.194.035-.2-.015,0,.013.59.154.64.172a32.912,32.912,0,0,1,4.9,2.821l20.228,11.938,5.007,2.955c1.542.91,3.034,1.913,4.538,2.849.1.06.256.368.086.047-.128-.242.285-.744-.2.022-.542.85-1.028,1.742-1.541,2.61-.2.344-.427.683-.611,1.036-.019.035-.311.518-.153.294.129-.182-.107.12-.116.13.142-.144-.146.114-.205.13a1.365,1.365,0,0,1-.7-.01c-1.245-.275-2.589-1.4-3.679-2.043l-4.5-2.658-8.513-5.025c-2.666-1.573-5.084,2.574-2.423,4.145l8.812,5.2,4.58,2.7a18.9,18.9,0,0,0,4.451,2.306,5.711,5.711,0,0,0,5.739-1.536,13.717,13.717,0,0,0,1.464-2.25c.628-1.064,1.345-2.113,1.886-3.224,2.3-4.711-3.84-7.308-7.009-9.178L15.973,247.343c-1.93-1.139-3.839-2.446-5.86-3.417s-4.412-1.307-6.146.4a13.368,13.368,0,0,0-1.813,2.81c-.5.845-1.047,1.678-1.5,2.549a5.565,5.565,0,0,0,.077,5.38c1.022,1.756,2.817,2.678,4.5,3.673l4.892,2.887,9.54,5.631C22.334,268.834,24.751,264.686,22.09,263.115Z"/><path class="b" d="M50.726,186.772c2.386,1.409,4.766,2.828,7.153,4.236a2.4,2.4,0,0,0,2.422-4.145c-2.386-1.408-4.766-2.827-7.152-4.236a2.4,2.4,0,1,0-2.423,4.145Z"/><path class="b" d="M60.8,169.705c2.386,1.409,4.766,2.828,7.152,4.236a2.4,2.4,0,0,0,2.423-4.145c-2.386-1.408-4.766-2.827-7.153-4.235a2.4,2.4,0,1,0-2.422,4.144Z"/><path class="b" d="M80.944,135.571c2.386,1.409,4.766,2.828,7.152,4.236a2.4,2.4,0,1,0,2.423-4.144c-2.386-1.409-4.766-2.828-7.153-4.236a2.4,2.4,0,0,0-2.422,4.144Z"/><path class="b" d="M40.654,203.839q3.579,2.113,7.152,4.236a2.4,2.4,0,0,0,2.423-4.145c-2.386-1.408-4.767-2.827-7.153-4.236a2.4,2.4,0,0,0-2.422,4.145Z"/><path class="b" d="M70.871,152.638q3.48,2.055,6.954,4.119a2.4,2.4,0,0,0,2.423-4.145c-2.32-1.369-4.634-2.749-6.954-4.118a2.4,2.4,0,1,0-2.423,4.144Z"/><path class="b" d="M109.113,97.921c-1.707,1.621-2.78,4.15-3.965,6.167q-2.04,3.47-4.077,6.94l-1.524,2.592c-.688,1.171-1.763,2.534-1.763,3.941,0,1.608,1.2,2.531,2.452,3.283,1.073.642,2.14,1.294,3.214,1.934,1.577.941,3.169,1.856,4.758,2.776,1.223.709,2.446,1.53,3.929,1.105,1.752-.5,2.54-2.592,3.39-4.026q2.752-4.65,5.511-9.3c.838-1.413,1.7-2.816,2.511-4.242a6.784,6.784,0,0,0,.79-4.864,10.12,10.12,0,0,0-1.355-3.857c-1.015-1.53-2.759-2.285-4.294-3.191a6.815,6.815,0,0,0-4.931-1.12,8.909,8.909,0,0,0-4.16,1.482,2.479,2.479,0,0,0-.861,3.283,2.416,2.416,0,0,0,3.284.861,5.286,5.286,0,0,1,2.695-.953,3.462,3.462,0,0,1,.611,0c-.18-.028-.54-.282.18.145q.962.57,1.926,1.136c.382.226.763.455,1.147.677.534.309.409.272.258.1a2.6,2.6,0,0,1,.483,1.041,4.456,4.456,0,0,1,.333,2.406,11.332,11.332,0,0,1-1.149,1.947q-.632,1.068-1.264,2.135-1.284,2.168-2.57,4.335-1.26,2.124-2.52,4.248l-1.2,2.027a9.979,9.979,0,0,1-1.04,1.672l1.059-.617c.722-.254,1.076.3.416-.143-.237-.161-.509-.3-.757-.44l-1.583-.914q-1.082-.626-2.159-1.26-1-.594-2.006-1.2l-1.706-1.028c-.248-.149-.492-.32-.751-.45-.666-.337-.05-.393.074.363V118.2a11.044,11.044,0,0,1,1.023-1.867l1.02-1.735,2.767-4.711,2.792-4.752a17.2,17.2,0,0,1,2.406-3.819C114.752,99.184,111.354,95.794,109.113,97.921Z"/></svg>